<?xml version="1.0" encoding="UTF-8"?>
<svg width="80" height="80" viewBox="0 0 80 80" xmlns="http://www.w3.org/2000/svg">
  <defs>
    <linearGradient id="grad1" x1="0%" y1="0%" x2="100%" y2="100%">
      <stop offset="0%" style="stop-color:#2563eb;stop-opacity:1" />
      <stop offset="100%" style="stop-color:#1d4ed8;stop-opacity:1" />
    </linearGradient>
  </defs>
  
  <!-- Background Circle -->
  <circle cx="40" cy="40" r="35" fill="url(#grad1)" stroke="#1e40af" stroke-width="2"/>
  
  <!-- Building Icon -->
  <rect x="25" y="45" width="30" height="25" fill="white" opacity="0.9"/>
  <rect x="30" y="35" width="20" height="10" fill="white" opacity="0.9"/>
  <rect x="35" y="25" width="10" height="10" fill="white" opacity="0.9"/>
  
  <!-- Windows -->
  <rect x="28" y="50" width="3" height="4" fill="#2563eb"/>
  <rect x="33" y="50" width="3" height="4" fill="#2563eb"/>
  <rect x="38" y="50" width="3" height="4" fill="#2563eb"/>
  <rect x="43" y="50" width="3" height="4" fill="#2563eb"/>
  <rect x="48" y="50" width="3" height="4" fill="#2563eb"/>
  
  <rect x="28" y="57" width="3" height="4" fill="#2563eb"/>
  <rect x="33" y="57" width="3" height="4" fill="#2563eb"/>
  <rect x="38" y="57" width="3" height="4" fill="#2563eb"/>
  <rect x="43" y="57" width="3" height="4" fill="#2563eb"/>
  <rect x="48" y="57" width="3" height="4" fill="#2563eb"/>
  
  <!-- Company Initial -->
  <text x="40" y="20" text-anchor="middle" font-family="Arial, sans-serif" font-size="12" font-weight="bold" fill="white">ف</text>
</svg>